<?xml version="1.0" encoding="UTF-8" standalone="no"?>
<!DOCTYPE svg PUBLIC "-//W3C//DTD SVG 1.1//EN" "http://www.w3.org/Graphics/SVG/1.1/DTD/svg11.dtd">
<svg width="100%" height="100%" viewBox="0 0 1024 1024" version="1.1" xmlns="http://www.w3.org/2000/svg" xmlns:xlink="http://www.w3.org/1999/xlink" xml:space="preserve" xmlns:serif="http://www.serif.com/" style="fill-rule:evenodd;clip-rule:evenodd;stroke-linejoin:round;stroke-miterlimit:2;">
    <rect id="Artboard1" x="0" y="0" width="1024" height="1024" style="fill:none;"/>
    <g id="Artboard11" serif:id="Artboard1">
        <path d="M562.986,81.22C529.114,77.211 494.886,77.211 461.014,81.22L449.558,148.607C427.344,152.424 405.526,158.27 384.38,166.071L340.765,113.44C309.426,126.905 279.785,144.018 252.455,164.427L276.227,228.514C258.897,242.926 242.926,258.897 228.514,276.227L164.427,252.455C144.018,279.785 126.905,309.426 113.44,340.765L166.071,384.38C158.27,405.526 152.424,427.344 148.607,449.558L81.22,461.014C77.211,494.886 77.211,529.114 81.22,562.986L148.607,574.442C152.424,596.656 158.27,618.474 166.071,639.62L113.44,683.235C126.905,714.574 144.018,744.215 164.427,771.545L228.514,747.773C242.926,765.103 258.897,781.074 276.227,795.486L252.455,859.573C279.785,879.982 309.426,897.095 340.765,910.56L384.38,857.929C405.526,865.73 427.344,871.576 449.558,875.393L461.014,942.78C494.886,946.789 529.114,946.789 562.986,942.78L574.442,875.393C596.656,871.576 618.474,865.73 639.62,857.929L683.235,910.56C714.574,897.095 744.215,879.982 771.545,859.573L747.773,795.486C765.103,781.074 781.074,765.103 795.486,747.773L859.573,771.545C879.982,744.215 897.095,714.574 910.56,683.235L857.929,639.62C865.73,618.474 871.576,596.656 875.393,574.442L942.78,562.986C946.789,529.114 946.789,494.886 942.78,461.014L875.393,449.558C871.576,427.344 865.73,405.526 857.929,384.38L910.56,340.765C897.095,309.426 879.982,279.785 859.573,252.455L795.486,276.227C781.074,258.897 765.103,242.926 747.773,228.514L771.545,164.427C744.215,144.018 714.574,126.905 683.235,113.44L639.62,166.071C618.474,158.27 596.656,152.424 574.442,148.607L562.986,81.22ZM588.644,724.752L623.906,785.827C589.364,799.97 551.585,807.764 512,807.764C472.415,807.764 434.636,799.97 400.094,785.827L435.356,724.752C459.284,733.386 485.096,738.095 512,738.095C538.904,738.095 564.716,733.386 588.644,724.752ZM734.561,552L805.076,552C794.433,630.564 752.903,699.362 693.144,745.75L657.886,684.682C697.259,651.375 725.106,604.859 734.561,552ZM289.439,552C298.89,604.856 326.738,651.373 366.114,684.682L330.856,745.75C271.092,699.355 229.563,630.554 218.924,552L289.439,552ZM512,360.175C595.795,360.175 663.825,428.205 663.825,512C663.825,595.795 595.795,663.825 512,663.825C428.205,663.825 360.175,595.795 360.175,512C360.175,428.205 428.205,360.175 512,360.175ZM693.144,278.25C752.908,324.645 794.437,393.446 805.076,472L734.561,472C725.11,419.144 697.262,372.627 657.886,339.318L693.144,278.25ZM330.856,278.25L366.114,339.318C326.741,372.625 298.894,419.141 289.439,472L218.924,472C229.567,393.436 271.097,324.638 330.856,278.25ZM623.906,238.173L588.644,299.248C564.716,290.614 538.904,285.905 512,285.905C485.096,285.905 459.284,290.614 435.356,299.248L400.094,238.173C434.636,224.03 472.415,216.236 512,216.236C551.585,216.236 589.364,224.03 623.906,238.173Z"/>
    </g>
</svg>
